HIERARCHY
ROOT Pelvis
{
	OFFSET 0.000000 0.000000 0.000000
	CHANNELS 6 Xposition Yposition Zposition Xrotation Yrotation Zrotation
	JOINT LeftUpLeg_virtual
	{
		OFFSET 0.000000 0.000000 0.000000
		CHANNELS 3 Xrotation Yrotation Zrotation
		JOINT LeftUpLeg
		{
			OFFSET 18.735201 -5.666702 -4.541200
			CHANNELS 3 Xrotation Yrotation Zrotation
			JOINT LeftLeg
			{
				OFFSET -0.021200 -31.938179 0.493100
				CHANNELS 3 Xrotation Yrotation Zrotation
				JOINT LeftFoot
				{
					OFFSET 0.021200 -31.938179 -4.336299
					CHANNELS 3 Xrotation Yrotation Zrotation
					JOINT LeftToeBase
					{
						OFFSET 0.943001 -26.722000 15.023500
						CHANNELS 3 Xrotation Yrotation Zrotation
						End Site
						{
							OFFSET 0 0 0
						}
					}
				}
			}
		}
	}
	JOINT RightUpLeg_virtual
	{
		OFFSET 0.000000 0.000000 0.000000
		CHANNELS 3 Xrotation Yrotation Zrotation
		JOINT RightUpLeg
		{
			OFFSET -18.735201 -5.666702 -4.541200
			CHANNELS 3 Xrotation Yrotation Zrotation
			JOINT RightLeg
			{
				OFFSET 0.018946 -31.938133 0.493100
				CHANNELS 3 Xrotation Yrotation Zrotation
				JOINT RightFoot
				{
					OFFSET -0.018946 -31.938126 -4.336299
					CHANNELS 3 Xrotation Yrotation Zrotation
					JOINT RightToeBase
					{
						OFFSET -0.943001 -26.722004 15.023500
						CHANNELS 3 Xrotation Yrotation Zrotation
						End Site
						{
							OFFSET 0 0 0
						}
					}
				}
			}
		}
	}
	JOINT Hips_virtual
	{
		OFFSET 0.000000 0.000000 0.000000
		CHANNELS 3 Xrotation Yrotation Zrotation
		JOINT Hips
		{
			OFFSET -0.000000 -0.000000 -0.000000
			CHANNELS 3 Xrotation Yrotation Zrotation
			JOINT Spine
			{
				OFFSET 0.000000 10.199997 -0.299500
				CHANNELS 3 Xrotation Yrotation Zrotation
				JOINT Spine1
				{
					OFFSET 0.000000 11.900002 -1.516600
					CHANNELS 3 Xrotation Yrotation Zrotation
					JOINT Spine2
					{
						OFFSET 0.000000 13.600006 -2.842500
						CHANNELS 3 Xrotation Yrotation Zrotation
						JOINT Neck_virtual
						{
							OFFSET 0.000000 0.000000 0.000000
							CHANNELS 3 Xrotation Yrotation Zrotation
							JOINT Neck
							{
								OFFSET 0.000000 9.624100 -2.890100
								CHANNELS 3 Xrotation Yrotation Zrotation
								JOINT Head
								{
									OFFSET 0.000000 14.068802 -1.351900
									CHANNELS 3 Xrotation Yrotation Zrotation
									End Site
									{
										OFFSET 0 0 0
									}
								}
							}
						}
						JOINT LeftShoulder_virtual
						{
							OFFSET 0.000000 0.000000 0.000000
							CHANNELS 3 Xrotation Yrotation Zrotation
							JOINT LeftShoulder
							{
								OFFSET 15.263000 10.923401 -0.547700
								CHANNELS 3 Xrotation Yrotation Zrotation
								JOINT LeftArm
								{
									OFFSET 25.438599 -2.830597 -13.032500
									CHANNELS 3 Xrotation Yrotation Zrotation
									JOINT LeftForeArm
									{
										OFFSET 29.960503 0.000000 0.000000
										CHANNELS 3 Xrotation Yrotation Zrotation
										JOINT LeftHand
										{
											OFFSET 27.849251 0.000000 0.000000
											CHANNELS 3 Xrotation Yrotation Zrotation
											End Site
											{
												OFFSET 0 0 0
											}
										}
									}
								}
							}
						}
						JOINT RightShoulder_virtual
						{
							OFFSET 0.000000 0.000000 0.000000
							CHANNELS 3 Xrotation Yrotation Zrotation
							JOINT RightShoulder
							{
								OFFSET -15.263000 10.923401 -0.547700
								CHANNELS 3 Xrotation Yrotation Zrotation
								JOINT RightArm
								{
									OFFSET -25.438599 -2.830597 -13.032500
									CHANNELS 3 Xrotation Yrotation Zrotation
									JOINT RightForeArm
									{
										OFFSET -29.960503 0.000000 0.000000
										CHANNELS 3 Xrotation Yrotation Zrotation
										JOINT RightHand
										{
											OFFSET -27.849251 0.000000 0.000000
											CHANNELS 3 Xrotation Yrotation Zrotation
											End Site
											{
												OFFSET 0 0 0
											}
										}
									}
								}
							}
						}
					}
				}
			}
		}
	}
}
MOTION
Frames: 13
Frame Time: 0.03333333
-0.049267 79.438484 1.980562 0.000000 0.000000 0.000000 -1.983749 -14.127365 5.573938 -47.139333 3.034696 23.283691 52.380461 -0.768652 -2.914959 -0.493611 0.167377 -10.209665 0.000000 0.000000 0.000000 3.384397 -7.546983 -7.479079 -26.805233 -4.502938 -23.836080 44.803616 4.259104 4.674161 -11.201064 -2.421875 21.559969 0.000000 0.000000 0.000000 2.397911 -4.463324 0.407206 9.986589 -3.790188 1.562133 10.438912 2.065191 -1.686310 4.677859 1.637199 -1.082578 0.000000 0.000000 0.000000 5.107301 0.921378 -0.569053 0.112824 0.464125 0.032411 0.000000 0.000000 0.000000 6.351744 0.279174 -0.514005 2.809024 -8.417864 -6.768613 -32.179804 -25.512536 -60.599726 -19.142322 -81.242204 -18.811132 0.000000 0.000000 0.000000 6.054731 1.502656 0.042797 2.595734 7.404113 7.672392 -7.155172 16.329758 41.789146 2.333129 65.478032 -0.668905 0.000000 0.000000 0.000000 
0.021046 79.450294 1.973041 0.000000 0.000000 0.000000 -2.031667 -14.145010 5.550371 -47.211617 3.027364 23.272317 52.494088 -0.807065 -2.942312 -0.382532 0.139171 -10.291207 0.000000 0.000000 0.000000 3.469145 -7.312045 -7.569795 -26.685812 -4.436934 -23.905666 44.784393 4.244244 4.757697 -11.230615 -2.483921 21.652113 0.000000 0.000000 0.000000 2.410584 -4.474713 0.420791 9.962823 -3.677868 1.577389 10.421193 2.073134 -1.737809 4.675593 1.656384 -1.103979 0.000000 0.000000 0.000000 5.152465 0.912850 -0.578983 0.109914 0.461933 0.038801 0.000000 0.000000 0.000000 6.394107 0.269245 -0.521782 2.812433 -8.449465 -6.759769 -32.321978 -25.561846 -60.568731 -19.561805 -81.515985 -19.143273 0.000000 0.000000 0.000000 6.106283 1.530921 0.024758 2.625052 7.293602 7.748633 -6.982401 16.289345 41.707058 2.374807 65.644839 -0.691730 0.000000 0.000000 0.000000 
0.144207 79.473770 1.957945 0.000000 0.000000 0.000000 -2.115308 -14.205203 5.503556 -47.339222 3.009699 23.245651 52.705380 -0.871384 -2.988600 -0.176236 0.091543 -10.430870 0.000000 0.000000 0.000000 3.626623 -6.874054 -7.732471 -26.467620 -4.315401 -24.028708 44.754681 4.215395 4.904370 -11.277625 -2.593941 21.811142 0.000000 0.000000 0.000000 2.441147 -4.504702 0.451596 9.917878 -3.447823 1.598463 10.392917 2.093544 -1.829794 4.678592 1.689934 -1.144313 0.000000 0.000000 0.000000 5.238232 0.897777 -0.597909 0.105277 0.456143 0.050216 0.000000 0.000000 0.000000 6.471178 0.249424 -0.537526 2.817407 -8.504563 -6.742844 -32.537505 -25.652848 -60.496474 -20.413347 -82.026733 -19.839582 0.000000 0.000000 0.000000 6.205660 1.583259 -0.007487 2.676449 7.086863 7.888950 -6.666828 16.205626 41.566451 2.453272 65.941173 -0.726228 0.000000 0.000000 0.000000 
0.291299 79.507942 1.936900 0.000000 0.000000 0.000000 -2.215343 -14.337264 5.436630 -47.494800 2.978248 23.200524 52.985414 -0.941018 -3.040537 0.097041 0.039477 -10.590767 0.000000 0.000000 0.000000 3.837274 -6.286967 -7.935583 -26.183429 -4.156215 -24.178368 44.727572 4.174712 5.080785 -11.323712 -2.728570 21.996542 0.000000 0.000000 0.000000 2.498281 -4.561674 0.505242 9.857827 -3.098533 1.610860 10.365660 2.132793 -1.945171 4.696678 1.730026 -1.199343 0.000000 0.000000 0.000000 5.356381 0.879408 -0.624243 0.100631 0.444844 0.064415 0.000000 0.000000 0.000000 6.570383 0.220194 -0.560970 2.821836 -8.569900 -6.719791 -32.724696 -25.770148 -60.368251 -21.730119 -82.709698 -20.963056 0.000000 0.000000 0.000000 6.345372 1.652724 -0.048111 2.738454 6.808565 8.072261 -6.261107 16.074102 41.405747 2.555239 66.308405 -0.752320 0.000000 0.000000 0.000000 
0.431473 79.550247 1.914884 0.000000 0.000000 0.000000 -2.311802 -14.549160 5.357978 -47.649445 2.932628 23.139865 53.297564 -0.994313 -3.085230 0.402525 -0.000290 -10.732299 0.000000 0.000000 0.000000 4.081398 -5.611239 -8.144113 -25.864798 -3.979988 -24.325297 44.713786 4.126046 5.251665 -11.352637 -2.862407 22.167101 0.000000 0.000000 0.000000 2.590791 -4.647255 0.586530 9.792176 -2.644667 1.600631 10.351528 2.195175 -2.067646 4.735252 1.768574 -1.264089 0.000000 0.000000 0.000000 5.496613 0.861125 -0.656213 0.097347 0.426934 0.078925 0.000000 0.000000 0.000000 6.678444 0.182949 -0.590546 2.825198 -8.631314 -6.693889 -32.799258 -25.891943 -60.174390 -23.577876 -83.486058 -22.607354 0.000000 0.000000 0.000000 6.514594 1.731703 -0.091746 2.799759 6.488261 8.273564 -5.827743 15.890925 41.264666 2.657288 66.689229 -0.746362 0.000000 0.000000 0.000000 
0.541450 79.596306 1.900226 0.000000 0.000000 0.000000 -2.388318 -14.815293 5.280610 -47.778908 2.877713 23.073848 53.603659 -1.015380 -3.114676 0.705082 -0.014143 -10.828689 0.000000 0.000000 0.000000 4.346288 -4.898753 -8.328117 -25.530146 -3.805673 -24.445003 44.715859 4.075033 5.389649 -11.357151 -2.974468 22.293015 0.000000 0.000000 0.000000 2.722996 -4.751531 0.696351 9.731383 -2.123979 1.558546 10.359764 2.279946 -2.186736 4.791620 1.799602 -1.333619 0.000000 0.000000 0.000000 5.648154 0.845409 -0.692330 0.095847 0.403144 0.091487 0.000000 0.000000 0.000000 6.785092 0.140127 -0.622958 2.829143 -8.677468 -6.668892 -32.731687 -25.994066 -59.919706 -26.058913 -84.275874 -24.892312 0.000000 0.000000 0.000000 6.700348 1.813599 -0.135114 2.853025 6.155635 8.468926 -5.423974 15.655465 41.171151 2.730899 67.045239 -0.689673 0.000000 0.000000 0.000000 
0.611299 79.640610 1.902814 0.000000 0.000000 0.000000 -2.432972 -15.086389 5.218285 -47.865624 2.822828 23.016006 53.870405 -0.998341 -3.127724 0.974755 0.004669 -10.871642 0.000000 0.000000 0.000000 4.629530 -4.183826 -8.468058 -25.180090 -3.647578 -24.522112 44.725899 4.028603 5.480138 -11.341533 -3.051591 22.361114 0.000000 0.000000 0.000000 2.890194 -4.855554 0.829690 9.683021 -1.592370 1.482563 10.395123 2.380835 -2.298727 4.856510 1.820167 -1.403489 0.000000 0.000000 0.000000 5.801017 0.833239 -0.731656 0.095621 0.376194 0.100238 0.000000 0.000000 0.000000 6.884810 0.094942 -0.653585 2.836477 -8.701897 -6.647384 -32.554020 -26.055876 -59.627579 -29.282066 -85.007387 -27.933095 0.000000 0.000000 0.000000 6.889500 1.893527 -0.177176 2.896538 5.837265 8.639032 -5.088970 15.372331 41.133209 2.753696 67.360856 -0.577618 0.000000 0.000000 0.000000 
0.644604 79.677734 1.931784 0.000000 0.000000 0.000000 -2.437423 -15.313837 5.180966 -47.898136 2.778097 22.977450 54.075502 -0.947759 -3.129280 1.191188 0.054755 -10.870636 0.000000 0.000000 0.000000 4.936768 -3.482793 -8.556092 -24.802094 -3.514182 -24.551149 44.728470 3.994057 5.520600 -11.318988 -3.088403 22.373091 0.000000 0.000000 0.000000 3.076741 -4.940120 0.975820 9.648816 -1.108013 1.379514 10.457992 2.488178 -2.404156 4.919269 1.829729 -1.469894 0.000000 0.000000 0.000000 5.946724 0.824120 -0.773748 0.095732 0.349980 0.103821 0.000000 0.000000 0.000000 6.976272 0.050974 -0.677604 2.849369 -8.703304 -6.628903 -32.337606 -26.065629 -59.335834 -33.261389 -85.621715 -31.743506 0.000000 0.000000 0.000000 7.070926 1.968128 -0.218247 2.933547 5.554385 8.770923 -4.836985 15.052371 41.137065 2.720746 67.635709 -0.424990 0.000000 0.000000 0.000000 
0.653574 79.703766 1.993776 0.000000 0.000000 0.000000 -2.396580 -15.471815 5.172904 -47.870638 2.749926 22.963502 54.212130 -0.875549 -3.127622 1.346570 0.128099 -10.846458 0.000000 0.000000 0.000000 5.275180 -2.800882 -8.594208 -24.381737 -3.408534 -24.534943 44.707000 3.977728 5.516369 -11.305869 -3.085248 22.339392 0.000000 0.000000 0.000000 3.258955 -4.995870 1.120854 9.624829 -0.712737 1.266355 10.545267 2.592333 -2.504056 4.972746 1.828774 -1.529864 0.000000 0.000000 0.000000 6.078652 0.816565 -0.818350 0.095433 0.328219 0.101596 0.000000 0.000000 0.000000 7.060546 0.011829 -0.691335 2.868188 -8.683996 -6.608836 -32.157658 -26.022105 -59.085631 -37.738250 -86.077486 -36.063976 0.000000 0.000000 0.000000 7.237227 2.035038 -0.259029 2.969918 5.321117 8.858197 -4.657795 14.711664 41.151391 2.649245 67.872095 -0.264523 0.000000 0.000000 0.000000 
0.651666 79.717369 2.091744 0.000000 0.000000 0.000000 -2.309299 -15.564118 5.194203 -47.783273 2.738279 22.974523 54.289824 -0.796111 -3.131252 1.446106 0.213458 -10.822523 0.000000 0.000000 0.000000 5.646454 -2.142140 -8.590452 -23.914219 -3.329939 -24.481768 44.650852 3.983407 5.475706 -11.315332 -3.045934 22.272275 0.000000 0.000000 0.000000 3.412962 -5.027776 1.251662 9.603612 -0.421860 1.168896 10.651434 2.686586 -2.597487 5.015251 1.817751 -1.581549 0.000000 0.000000 0.000000 6.192291 0.808715 -0.865060 0.094506 0.313239 0.093817 0.000000 0.000000 0.000000 7.139351 -0.019019 -0.693124 2.891744 -8.646926 -6.578613 -32.063510 -25.932948 -58.908852 -42.057641 -86.355461 -40.241501 0.000000 0.000000 0.000000 7.385337 2.092533 -0.300088 3.011342 5.143638 8.899852 -4.523432 14.368631 41.135996 2.574145 68.067022 -0.138940 0.000000 0.000000 0.000000 
0.647656 79.720383 2.224069 0.000000 0.000000 0.000000 -2.179469 -15.614600 5.243925 -47.642728 2.737103 23.009128 54.330275 -0.721856 -3.146290 1.504968 0.299935 -10.817360 0.000000 0.000000 0.000000 6.042822 -1.517491 -8.554614 -23.410569 -3.276188 -24.402133 44.559512 4.010852 5.406396 -11.353364 -2.976581 22.180771 0.000000 0.000000 0.000000 3.523405 -5.051509 1.359441 9.576589 -0.227164 1.116824 10.769175 2.768122 -2.681237 5.049194 1.797106 -1.624403 0.000000 0.000000 0.000000 6.285590 0.798835 -0.913183 0.093329 0.305410 0.081594 0.000000 0.000000 0.000000 7.214069 -0.038402 -0.683446 2.918506 -8.592557 -6.527486 -32.066276 -25.811322 -58.819929 -45.345114 -86.461937 -43.406453 0.000000 0.000000 0.000000 7.515950 2.139512 -0.341787 3.061061 5.020845 8.898492 -4.398459 14.040005 41.052668 2.537043 68.212020 -0.089456 0.000000 0.000000 0.000000 
0.643537 79.717834 2.383806 0.000000 0.000000 0.000000 -2.015818 -15.650641 5.321922 -47.461291 2.737529 23.066727 54.358675 -0.660897 -3.175063 1.541903 0.379163 -10.840642 0.000000 0.000000 0.000000 6.447685 -0.947013 -8.494700 -22.896316 -3.245372 -24.305884 44.441982 4.055238 5.314712 -11.418551 -2.885465 22.069134 0.000000 0.000000 0.000000 3.588851 -5.083277 1.441383 9.534320 -0.110215 1.135281 10.890025 2.837243 -2.751310 5.078163 1.767987 -1.659016 0.000000 0.000000 0.000000 6.359269 0.785562 -0.961820 0.092699 0.303366 0.066553 0.000000 0.000000 0.000000 7.285523 -0.043773 -0.664206 2.947785 -8.517210 -6.445406 -32.143973 -25.672596 -58.814499 -46.982583 -86.423463 -44.946210 0.000000 0.000000 0.000000 7.632030 2.175711 -0.384280 3.118756 4.946433 8.858657 -4.250792 13.736499 40.875943 2.572037 68.298354 -0.143680 0.000000 0.000000 0.000000 
0.636471 79.717331 2.558393 0.000000 0.000000 0.000000 -1.830232 -15.690336 5.428301 -47.254568 2.731713 23.147731 54.393789 -0.617083 -3.216046 1.571477 0.445783 -10.893090 0.000000 0.000000 0.000000 6.839553 -0.455180 -8.415053 -22.404752 -3.236239 -24.200009 44.312249 4.108247 5.206222 -11.505117 -2.782866 21.938629 0.000000 0.000000 0.000000 3.620362 -5.129808 1.500008 9.465846 -0.056039 1.235798 11.005035 2.895622 -2.804605 5.104836 1.732881 -1.686655 0.000000 0.000000 0.000000 6.416719 0.768062 -1.010021 0.093626 0.304766 0.050366 0.000000 0.000000 0.000000 7.354212 -0.033714 -0.637730 2.980039 -8.414375 -6.325846 -32.257197 -25.532362 -58.874127 -46.943948 -86.275056 -44.838027 0.000000 0.000000 0.000000 7.737134 2.201867 -0.427431 3.180719 4.911379 8.785957 -4.060889 13.460418 40.600403 2.694259 68.323222 -0.307178 0.000000 0.000000 0.000000 
